<svg width="206" height="285" viewBox="0 0 206 285" fill="none" xmlns="http://www.w3.org/2000/svg">
<path fill-rule="evenodd" clip-rule="evenodd" d="M205.994 48C205.998 47.8335 206 47.6669 206 47.5C206 21.2665 159.885 0 103 0C46.1146 0 0 21.2665 0 47.5C0 47.6669 0.00195312 47.8335 0.00561523 48H0L0.00634766 48.0339C0.0648193 50.4843 0.525757 52.8903 1.35999 55.2383L40.009 260.942C40.553 274.269 65.6366 285 96.5 285C124.964 285 148.511 275.873 152.428 264H153.087L203.628 57.6812C205.104 54.5658 205.916 51.3362 205.994 48.0252L206 48H205.994Z" fill="#303030"/>
</svg>
