<svg width="206" height="356" viewBox="0 0 206 356" fill="none" xmlns="http://www.w3.org/2000/svg">
<path fill-rule="evenodd" clip-rule="evenodd" d="M126.625 0L145.363 11.1184L115.526 61.4043V71.3477C166.504 74.198 206 94.2219 206 118.5C206 118.667 205.998 118.834 205.994 119H206L205.994 119.025C205.916 122.336 205.104 125.566 203.628 128.681L153.087 335H152.428C148.511 346.873 124.964 356 96.5 356C65.6367 356 40.5533 345.269 40.009 331.943L1.35999 126.238C0.525757 123.89 0.0648193 121.484 0.00634766 119.034L0 119H0.00561523C0.00195312 118.834 0 118.667 0 118.5C0 93.7394 41.0817 73.4037 93.5265 71.1982V61C93.5265 55.3577 95.6505 50.2115 99.1427 46.3174L126.625 0Z" fill="#D9D9D9"/>
</svg>
