<svg width="259" height="253" viewBox="0 0 259 253" fill="none" xmlns="http://www.w3.org/2000/svg">
<path d="M199.994 47C199.998 46.8335 200 46.6669 200 46.5C200 20.8188 155.229 0 100 0C44.7715 0 0 20.8188 0 46.5C0 46.6669 0.00183105 46.8335 0.00561523 47H0V207H0.00561523C0.582275 232.451 45.1304 253 100 253C154.87 253 199.418 232.451 199.994 207H200V47H199.994Z" fill="#303030"/>
<path d="M199.903 77.8911V57C205.096 58.8083 210.381 59.9004 215.548 60.968C238.381 65.6857 258.903 69.9259 258.903 133.391C258.903 203.398 217.931 214.983 195 215.985C198.077 211.595 199.788 206.918 199.898 202.062H199.903V187.13C213.608 183.846 229.319 171.723 229.319 133.391C229.319 95.0584 213.608 81.9948 199.903 77.8911Z" fill="#303030"/>
</svg>
